<?xml version="1.0" encoding="UTF-8"?>
<svg width="197px" height="56px" viewBox="0 0 197 56" version="1.1" xmlns="http://www.w3.org/2000/svg" xmlns:xlink="http://www.w3.org/1999/xlink">
    <!-- Generator: Sketch 45 (43475) - http://www.bohemiancoding.com/sketch -->
    <title>clapper-logo</title>
    <desc>Created with Sketch.</desc>
    <defs>
        <path d="M73.6971232,30.0333333 C73.5635462,29.7333333 73.3297865,29.6333333 73.0626325,29.7666667 C71.8270454,30.4666667 70.6248526,30.7 69.1889,30.7 C66.350389,30.7 64.0795803,28.1333333 64.0795803,25 C64.0795803,21.8666667 66.350389,19.3 69.1889,19.3 C70.6248526,19.3 71.8270454,19.5333333 73.0626325,20.2333333 C73.3297865,20.3666667 73.5635462,20.2666667 73.6971232,19.9666667 L75.8009608,15.5333333 C75.9011435,15.3 75.7675665,15.1333333 75.5004125,14.9333333 C73.930883,13.7666667 71.1257663,13 68.4876208,13 C62.142714,13 57,18.3666667 57,25 C57,31.6333333 62.142714,37 68.4876208,37 C71.1257663,37 73.930883,36.2333333 75.5004125,35.0666667 C75.7675665,34.8666667 75.9011435,34.7 75.8009608,34.4666667 L73.6971232,30.0333333 Z M84.6170418,30.5 L90.8283717,30.5 C91.0621314,30.5 91.2624969,30.7 91.2624969,30.9666667 L90.7949774,36.0333333 C90.7615832,36.2666667 90.5278234,36.5 90.2606695,36.5 L78.2053465,36.5 C77.9381925,36.5 77.7044328,36.2666667 77.7044328,36.0333333 L77.7044328,14 C77.7044328,13.7333333 77.9381925,13.5 78.2053465,13.5 L84.1161281,13.5 C84.3832821,13.5 84.6170418,13.7333333 84.6170418,14 L84.6170418,30.5 Z M107.124764,13.9333333 L114.671864,36.0666667 C114.772046,36.2666667 114.638469,36.5 114.371315,36.5 L107.759255,36.5 C107.458706,36.5 107.191552,36.3333333 107.057975,36.0666667 L106.056148,32.5666667 L99.7780297,32.5666667 L98.7762023,36.0666667 C98.6426253,36.3333333 98.3754714,36.5 98.0749232,36.5 L91.4628624,36.5 C91.1957084,36.5 91.0621314,36.2666667 91.1623141,36.0666667 L98.7094138,13.9333333 C98.8095966,13.7333333 99.1769333,13.5 99.5108757,13.5 L106.323302,13.5 C106.657244,13.5 107.024581,13.7333333 107.124764,13.9333333 Z M104.720378,27.8 L102.917089,21.4666667 L101.1138,27.8 L104.720378,27.8 Z M116.041028,13.5 L123.92207,13.5 C129.766063,13.5 133.272459,16.6666667 133.272459,21.4333333 C133.272459,26.2 129.766063,29.3666667 123.92207,29.3666667 L122.552906,29.3666667 L122.552906,36.0333333 C122.552906,36.2666667 122.319146,36.5 122.018598,36.5 L116.041028,36.5 C115.807268,36.5 115.573508,36.2666667 115.573508,36.0333333 L115.573508,14 C115.573508,13.7333333 115.807268,13.5 116.041028,13.5 Z M122.486117,23.4 L124.222618,23.4 C125.391417,23.4 126.192879,22.6 126.192879,21.4333333 C126.192879,20.2666667 125.391417,19.4666667 124.222618,19.4666667 L122.486117,19.4666667 L122.486117,23.4 Z M135.142537,13.5 L143.023579,13.5 C148.867572,13.5 152.373968,16.6666667 152.373968,21.4333333 C152.373968,26.2 148.867572,29.3666667 143.023579,29.3666667 L141.654415,29.3666667 L141.654415,36.0333333 C141.654415,36.2666667 141.420655,36.5 141.120107,36.5 L135.142537,36.5 C134.908777,36.5 134.675017,36.2666667 134.675017,36.0333333 L134.675017,14 C134.675017,13.7333333 134.908777,13.5 135.142537,13.5 Z M141.587626,23.4 L143.324127,23.4 C144.492926,23.4 145.294388,22.6 145.294388,21.4333333 C145.294388,20.2666667 144.492926,19.4666667 143.324127,19.4666667 L141.587626,19.4666667 L141.587626,23.4 Z M160.72253,30.5 L160.72253,27.6666667 L167.735321,27.6666667 C168.035869,27.6666667 168.269629,27.4333333 168.303023,27.2333333 L168.770543,22.5666667 C168.803937,22.3666667 168.636966,22.1333333 168.336418,22.1333333 L160.72253,22.1333333 L160.72253,19.5 L168.937514,19.5 C169.238062,19.5 169.471822,19.3 169.471822,19 L169.471822,13.9666667 C169.471822,13.7333333 169.238062,13.5 168.937514,13.5 L154.244046,13.5 C153.943497,13.5 153.776526,13.6666667 153.776526,13.9666667 L153.776526,36 C153.843315,36.2333333 154.077074,36.5 154.310834,36.5 L169.171274,36.5 C169.438428,36.5 169.672188,36.2666667 169.672188,36.0333333 L169.672188,30.9333333 C169.672188,30.7 169.438428,30.5 169.171274,30.5 L160.72253,30.5 Z M186.001974,27.2333333 L190.944323,35.9666667 C191.111294,36.2666667 190.877534,36.5 190.576986,36.5 L183.797954,36.5 C183.464011,36.5 183.163463,36.2666667 183.029886,35.9666667 L180.091192,29.1666667 C179.790644,28.4333333 179.289731,28.0666667 178.788817,28.1333333 L178.788817,36.0333333 C178.788817,36.2666667 178.555057,36.5 178.254509,36.5 L172.377122,36.5 C172.109968,36.5 171.876208,36.2666667 171.876208,36.0333333 L171.876208,14 C171.876208,13.7333333 172.109968,13.5 172.377122,13.5 L181.193203,13.5 C186.335917,13.5 189.74213,16.5 189.74213,21.0333333 C189.74213,23.7 188.306177,26.0666667 186.001974,27.2333333 Z M178.788817,23.0333333 L180.759077,23.0333333 C181.894482,23.0333333 182.662549,22.3333333 182.662549,21.2666667 C182.662549,20.2 181.894482,19.5 180.759077,19.5 L178.788817,19.5 L178.788817,23.0333333 Z" id="path-1"></path>
        <filter x="-2.6%" y="-10.4%" width="105.2%" height="133.3%" filterUnits="objectBoundingBox" id="filter-2">
            <feOffset dx="0" dy="1" in="SourceAlpha" result="shadowOffsetOuter1"></feOffset>
            <feGaussianBlur stdDeviation="1" in="shadowOffsetOuter1" result="shadowBlurOuter1"></feGaussianBlur>
            <feColorMatrix values="0 0 0 0 0   0 0 0 0 0   0 0 0 0 0  0 0 0 0.24 0" type="matrix" in="shadowBlurOuter1" result="shadowMatrixOuter1"></feColorMatrix>
            <feOffset dx="0" dy="1" in="SourceAlpha" result="shadowOffsetOuter2"></feOffset>
            <feColorMatrix values="0 0 0 0 0   0 0 0 0 0   0 0 0 0 0  0 0 0 0.24 0" type="matrix" in="shadowOffsetOuter2" result="shadowMatrixOuter2"></feColorMatrix>
            <feMerge>
                <feMergeNode in="shadowMatrixOuter1"></feMergeNode>
                <feMergeNode in="shadowMatrixOuter2"></feMergeNode>
            </feMerge>
        </filter>
        <linearGradient x1="50%" y1="0%" x2="50%" y2="100%" id="linearGradient-3">
            <stop stop-color="#FFAA00" offset="0%"></stop>
            <stop stop-color="#FF8000" offset="100%"></stop>
        </linearGradient>
        <circle id="path-4" cx="24" cy="24" r="24"></circle>
        <filter x="-18.8%" y="-12.5%" width="137.5%" height="137.5%" filterUnits="objectBoundingBox" id="filter-5">
            <feOffset dx="0" dy="2" in="SourceAlpha" result="shadowOffsetOuter1"></feOffset>
            <feGaussianBlur stdDeviation="2" in="shadowOffsetOuter1" result="shadowBlurOuter1"></feGaussianBlur>
            <feColorMatrix values="0 0 0 0 0   0 0 0 0 0   0 0 0 0 0  0 0 0 0.25 0" type="matrix" in="shadowBlurOuter1" result="shadowMatrixOuter1"></feColorMatrix>
            <feOffset dx="0" dy="1" in="SourceAlpha" result="shadowOffsetOuter2"></feOffset>
            <feGaussianBlur stdDeviation="1" in="shadowOffsetOuter2" result="shadowBlurOuter2"></feGaussianBlur>
            <feColorMatrix values="0 0 0 0 0   0 0 0 0 0   0 0 0 0 0  0 0 0 0.12 0" type="matrix" in="shadowBlurOuter2" result="shadowMatrixOuter2"></feColorMatrix>
            <feMerge>
                <feMergeNode in="shadowMatrixOuter1"></feMergeNode>
                <feMergeNode in="shadowMatrixOuter2"></feMergeNode>
            </feMerge>
        </filter>
    </defs>
    <g id="Clapper" stroke="none" stroke-width="1" fill="none" fill-rule="evenodd">
        <g id="Index" transform="translate(-26.000000, -14.000000)">
            <g id="clapper-logo" transform="translate(30.000000, 16.000000)">
                <g id="CLAPPER">
                    <use fill="black" fill-opacity="1" filter="url(#filter-2)" xlink:href="#path-1"></use>
                    <use fill="#FFFFFF" fill-rule="evenodd" xlink:href="#path-1"></use>
                </g>
                <g id="clapper-icon">
                    <g id="Oval-3">
                        <use fill="black" fill-opacity="1" filter="url(#filter-5)" xlink:href="#path-4"></use>
                        <use fill="url(#linearGradient-3)" fill-rule="evenodd" xlink:href="#path-4"></use>
                    </g>
                    <path d="M32.6938839,12.0456042 L13.3773826,15.2896712 C11.8010377,15.5762364 10.7646667,17.0106013 11.046061,18.5584476 L11.2187895,19.7426009 L11.2187895,33.1506508 C11.2187895,34.7131411 12.4933332,36 14.055784,36 L33.6190235,36 C35.1814743,36 36.456018,34.7131411 36.456018,33.1506508 L36.456018,19.3108586 L16.2884262,19.3108586 L36.1229946,15.9434423 C36.1229946,15.9434423 35.9779359,14.5590486 35.9626208,14.4139109 C35.672819,12.8135671 34.2416908,11.7641705 32.6938839,12.0456042 Z M32.8295879,12.8226851 C32.909913,12.8080806 32.984712,12.8398948 33.0639318,12.8350398 L35.2472343,15.1416521 C35.2534314,15.203978 35.253234,15.2296347 35.2595495,15.2896712 L32.9652524,15.684389 L30.5845911,13.2050482 L32.8295879,12.8226851 Z M28.2162844,13.599766 L30.5229361,16.0914615 L28.1546295,16.4984944 L25.8109926,14.0068385 L28.2162844,13.599766 Z M23.4057009,14.4015562 L25.7616529,16.9055274 L23.3193367,17.3249545 L20.9880545,14.8086287 L23.4057009,14.4015562 Z M18.5333836,15.2279769 L20.95103,17.7319875 L18.5087137,18.1390205 L16.1773921,15.6226946 L18.5333836,15.2279769 Z M13.7474305,16.6588288 C14.2536955,16.6588288 14.6725306,17.0653486 14.67257,17.5716531 C14.67257,18.0779182 14.2536955,18.4843985 13.7474305,18.4843985 C13.2411655,18.4843985 12.8346456,18.0779182 12.8346456,17.5716531 C12.8346456,17.0653486 13.2411655,16.6588288 13.7474305,16.6588288 Z M13.7967702,20.1002942 L16.2390865,20.1002942 L14.055784,23.3813857 L12.008225,23.3813857 L12.008225,22.7893091 L13.7967702,20.1002942 Z M18.6937179,20.1002942 L21.1360737,20.1002942 L18.9527712,23.3813857 L16.4981398,23.3813857 L18.6937179,20.1002942 Z M23.5783505,20.1002942 L26.0207062,20.1002942 L23.8374037,23.3813857 L21.3950875,23.3813857 L23.5783505,20.1002942 Z M28.462983,20.1002942 L30.9053387,20.1002942 L28.7220363,23.3813857 L26.27972,23.3813857 L28.462983,20.1002942 Z M33.3599702,20.1002942 L35.6665825,20.1002942 L35.6665825,20.2976531 L33.6190235,23.3813857 L31.1643525,23.3813857 L33.3599702,20.1002942 Z" id="Shape" fill="#FFFFFF"></path>
                </g>
            </g>
        </g>
    </g>
</svg>