<?xml version="1.0" encoding="UTF-8"?>
<svg width="138px" height="87px" viewBox="0 0 138 87" version="1.1" xmlns="http://www.w3.org/2000/svg" xmlns:xlink="http://www.w3.org/1999/xlink">
    <!-- Generator: Sketch 45 (43475) - http://www.bohemiancoding.com/sketch -->
    <title>clapper-logo-vertical</title>
    <desc>Created with Sketch.</desc>
    <defs>
        <path d="M15.6971232,75.0333333 C15.5635462,74.7333333 15.3297865,74.6333333 15.0626325,74.7666667 C13.8270454,75.4666667 12.6248526,75.7 11.1889,75.7 C8.35038901,75.7 6.07958025,73.1333333 6.07958025,70 C6.07958025,66.8666667 8.35038901,64.3 11.1889,64.3 C12.6248526,64.3 13.8270454,64.5333333 15.0626325,65.2333333 C15.3297865,65.3666667 15.5635462,65.2666667 15.6971232,64.9666667 L17.8009608,60.5333333 C17.9011435,60.3 17.7675665,60.1333333 17.5004125,59.9333333 C15.930883,58.7666667 13.1257663,58 10.4876208,58 C4.14271396,58 -1,63.3666667 -1,70 C-1,76.6333333 4.14271396,82 10.4876208,82 C13.1257663,82 15.930883,81.2333333 17.5004125,80.0666667 C17.7675665,79.8666667 17.9011435,79.7 17.8009608,79.4666667 L15.6971232,75.0333333 Z M26.6170418,75.5 L32.8283717,75.5 C33.0621314,75.5 33.2624969,75.7 33.2624969,75.9666667 L32.7949774,81.0333333 C32.7615832,81.2666667 32.5278234,81.5 32.2606695,81.5 L20.2053465,81.5 C19.9381925,81.5 19.7044328,81.2666667 19.7044328,81.0333333 L19.7044328,59 C19.7044328,58.7333333 19.9381925,58.5 20.2053465,58.5 L26.1161281,58.5 C26.3832821,58.5 26.6170418,58.7333333 26.6170418,59 L26.6170418,75.5 Z M49.1247639,58.9333333 L56.6718636,81.0666667 C56.7720464,81.2666667 56.6384694,81.5 56.3713154,81.5 L49.7592546,81.5 C49.4587064,81.5 49.1915524,81.3333333 49.0579754,81.0666667 L48.0561481,77.5666667 L41.7780297,77.5666667 L40.7762023,81.0666667 C40.6426253,81.3333333 40.3754714,81.5 40.0749232,81.5 L33.4628624,81.5 C33.1957084,81.5 33.0621314,81.2666667 33.1623141,81.0666667 L40.7094138,58.9333333 C40.8095966,58.7333333 41.1769333,58.5 41.5108757,58.5 L48.323302,58.5 C48.6572445,58.5 49.0245812,58.7333333 49.1247639,58.9333333 Z M46.7203782,72.8 L44.9170889,66.4666667 L43.1137996,72.8 L46.7203782,72.8 Z M58.0410277,58.5 L65.9220699,58.5 C71.766063,58.5 75.2724589,61.6666667 75.2724589,66.4333333 C75.2724589,71.2 71.766063,74.3666667 65.9220699,74.3666667 L64.5529058,74.3666667 L64.5529058,81.0333333 C64.5529058,81.2666667 64.3191461,81.5 64.0185979,81.5 L58.0410277,81.5 C57.807268,81.5 57.5735083,81.2666667 57.5735083,81.0333333 L57.5735083,59 C57.5735083,58.7333333 57.807268,58.5 58.0410277,58.5 Z M64.4861173,68.4 L66.2226181,68.4 C67.3914168,68.4 68.1928787,67.6 68.1928787,66.4333333 C68.1928787,65.2666667 67.3914168,64.4666667 66.2226181,64.4666667 L64.4861173,64.4666667 L64.4861173,68.4 Z M77.1425367,58.5 L85.0235789,58.5 C90.867572,58.5 94.3739679,61.6666667 94.3739679,66.4333333 C94.3739679,71.2 90.867572,74.3666667 85.0235789,74.3666667 L83.6544148,74.3666667 L83.6544148,81.0333333 C83.6544148,81.2666667 83.4206551,81.5 83.1201068,81.5 L77.1425367,81.5 C76.908777,81.5 76.6750173,81.2666667 76.6750173,81.0333333 L76.6750173,59 C76.6750173,58.7333333 76.908777,58.5 77.1425367,58.5 Z M83.5876263,68.4 L85.3241271,68.4 C86.4929257,68.4 87.2943876,67.6 87.2943876,66.4333333 C87.2943876,65.2666667 86.4929257,64.4666667 85.3241271,64.4666667 L83.5876263,64.4666667 L83.5876263,68.4 Z M102.72253,75.5 L102.72253,72.6666667 L109.735321,72.6666667 C110.035869,72.6666667 110.269629,72.4333333 110.303023,72.2333333 L110.770543,67.5666667 C110.803937,67.3666667 110.636966,67.1333333 110.336418,67.1333333 L102.72253,67.1333333 L102.72253,64.5 L110.937514,64.5 C111.238062,64.5 111.471822,64.3 111.471822,64 L111.471822,58.9666667 C111.471822,58.7333333 111.238062,58.5 110.937514,58.5 L96.2440457,58.5 C95.9434975,58.5 95.7765263,58.6666667 95.7765263,58.9666667 L95.7765263,81 C95.8433147,81.2333333 96.0770745,81.5 96.3108342,81.5 L111.171274,81.5 C111.438428,81.5 111.672188,81.2666667 111.672188,81.0333333 L111.672188,75.9333333 C111.672188,75.7 111.438428,75.5 111.171274,75.5 L102.72253,75.5 Z M128.001974,72.2333333 L132.944323,80.9666667 C133.111294,81.2666667 132.877534,81.5 132.576986,81.5 L125.797954,81.5 C125.464011,81.5 125.163463,81.2666667 125.029886,80.9666667 L122.091192,74.1666667 C121.790644,73.4333333 121.289731,73.0666667 120.788817,73.1333333 L120.788817,81.0333333 C120.788817,81.2666667 120.555057,81.5 120.254509,81.5 L114.377122,81.5 C114.109968,81.5 113.876208,81.2666667 113.876208,81.0333333 L113.876208,59 C113.876208,58.7333333 114.109968,58.5 114.377122,58.5 L123.193203,58.5 C128.335917,58.5 131.74213,61.5 131.74213,66.0333333 C131.74213,68.7 130.306177,71.0666667 128.001974,72.2333333 Z M120.788817,68.0333333 L122.759077,68.0333333 C123.894482,68.0333333 124.662549,67.3333333 124.662549,66.2666667 C124.662549,65.2 123.894482,64.5 122.759077,64.5 L120.788817,64.5 L120.788817,68.0333333 Z" id="path-1"></path>
        <filter x="-2.6%" y="-10.4%" width="105.2%" height="133.3%" filterUnits="objectBoundingBox" id="filter-2">
            <feOffset dx="0" dy="1" in="SourceAlpha" result="shadowOffsetOuter1"></feOffset>
            <feGaussianBlur stdDeviation="1" in="shadowOffsetOuter1" result="shadowBlurOuter1"></feGaussianBlur>
            <feColorMatrix values="0 0 0 0 0   0 0 0 0 0   0 0 0 0 0  0 0 0 0.24 0" type="matrix" in="shadowBlurOuter1" result="shadowMatrixOuter1"></feColorMatrix>
            <feOffset dx="0" dy="1" in="SourceAlpha" result="shadowOffsetOuter2"></feOffset>
            <feColorMatrix values="0 0 0 0 0   0 0 0 0 0   0 0 0 0 0  0 0 0 0.24 0" type="matrix" in="shadowOffsetOuter2" result="shadowMatrixOuter2"></feColorMatrix>
            <feMerge>
                <feMergeNode in="shadowMatrixOuter1"></feMergeNode>
                <feMergeNode in="shadowMatrixOuter2"></feMergeNode>
            </feMerge>
        </filter>
        <linearGradient x1="50%" y1="0%" x2="50%" y2="100%" id="linearGradient-3">
            <stop stop-color="#FFAA00" offset="0%"></stop>
            <stop stop-color="#FF8000" offset="100%"></stop>
        </linearGradient>
        <circle id="path-4" cx="24" cy="24" r="24"></circle>
        <filter x="-18.8%" y="-12.5%" width="137.5%" height="137.5%" filterUnits="objectBoundingBox" id="filter-5">
            <feOffset dx="0" dy="2" in="SourceAlpha" result="shadowOffsetOuter1"></feOffset>
            <feGaussianBlur stdDeviation="2" in="shadowOffsetOuter1" result="shadowBlurOuter1"></feGaussianBlur>
            <feColorMatrix values="0 0 0 0 0   0 0 0 0 0   0 0 0 0 0  0 0 0 0.25 0" type="matrix" in="shadowBlurOuter1" result="shadowMatrixOuter1"></feColorMatrix>
            <feOffset dx="0" dy="1" in="SourceAlpha" result="shadowOffsetOuter2"></feOffset>
            <feGaussianBlur stdDeviation="1" in="shadowOffsetOuter2" result="shadowBlurOuter2"></feGaussianBlur>
            <feColorMatrix values="0 0 0 0 0   0 0 0 0 0   0 0 0 0 0  0 0 0 0.12 0" type="matrix" in="shadowBlurOuter2" result="shadowMatrixOuter2"></feColorMatrix>
            <feMerge>
                <feMergeNode in="shadowMatrixOuter1"></feMergeNode>
                <feMergeNode in="shadowMatrixOuter2"></feMergeNode>
            </feMerge>
        </filter>
    </defs>
    <g id="Symbols" stroke="none" stroke-width="1" fill="none" fill-rule="evenodd">
        <g id="logos/clapper-logo-vertical" transform="translate(3.000000, 2.000000)">
            <g id="clapper-logo-vertical">
                <g id="CLAPPER">
                    <use fill="black" fill-opacity="1" filter="url(#filter-2)" xlink:href="#path-1"></use>
                    <use fill="#FFFFFF" fill-rule="evenodd" xlink:href="#path-1"></use>
                </g>
                <g id="clapper-icon" transform="translate(42.000000, 0.000000)">
                    <g id="Oval-3">
                        <use fill="black" fill-opacity="1" filter="url(#filter-5)" xlink:href="#path-4"></use>
                        <use fill="url(#linearGradient-3)" fill-rule="evenodd" xlink:href="#path-4"></use>
                    </g>
                    <path d="M32.6938839,12.0456042 L13.3773826,15.2896712 C11.8010377,15.5762364 10.7646667,17.0106013 11.046061,18.5584476 L11.2187895,19.7426009 L11.2187895,33.1506508 C11.2187895,34.7131411 12.4933332,36 14.055784,36 L33.6190235,36 C35.1814743,36 36.456018,34.7131411 36.456018,33.1506508 L36.456018,19.3108586 L16.2884262,19.3108586 L36.1229946,15.9434423 C36.1229946,15.9434423 35.9779359,14.5590486 35.9626208,14.4139109 C35.672819,12.8135671 34.2416908,11.7641705 32.6938839,12.0456042 Z M32.8295879,12.8226851 C32.909913,12.8080806 32.984712,12.8398948 33.0639318,12.8350398 L35.2472343,15.1416521 C35.2534314,15.203978 35.253234,15.2296347 35.2595495,15.2896712 L32.9652524,15.684389 L30.5845911,13.2050482 L32.8295879,12.8226851 Z M28.2162844,13.599766 L30.5229361,16.0914615 L28.1546295,16.4984944 L25.8109926,14.0068385 L28.2162844,13.599766 Z M23.4057009,14.4015562 L25.7616529,16.9055274 L23.3193367,17.3249545 L20.9880545,14.8086287 L23.4057009,14.4015562 Z M18.5333836,15.2279769 L20.95103,17.7319875 L18.5087137,18.1390205 L16.1773921,15.6226946 L18.5333836,15.2279769 Z M13.7474305,16.6588288 C14.2536955,16.6588288 14.6725306,17.0653486 14.67257,17.5716531 C14.67257,18.0779182 14.2536955,18.4843985 13.7474305,18.4843985 C13.2411655,18.4843985 12.8346456,18.0779182 12.8346456,17.5716531 C12.8346456,17.0653486 13.2411655,16.6588288 13.7474305,16.6588288 Z M13.7967702,20.1002942 L16.2390865,20.1002942 L14.055784,23.3813857 L12.008225,23.3813857 L12.008225,22.7893091 L13.7967702,20.1002942 Z M18.6937179,20.1002942 L21.1360737,20.1002942 L18.9527712,23.3813857 L16.4981398,23.3813857 L18.6937179,20.1002942 Z M23.5783505,20.1002942 L26.0207062,20.1002942 L23.8374037,23.3813857 L21.3950875,23.3813857 L23.5783505,20.1002942 Z M28.462983,20.1002942 L30.9053387,20.1002942 L28.7220363,23.3813857 L26.27972,23.3813857 L28.462983,20.1002942 Z M33.3599702,20.1002942 L35.6665825,20.1002942 L35.6665825,20.2976531 L33.6190235,23.3813857 L31.1643525,23.3813857 L33.3599702,20.1002942 Z" id="Shape" fill="#FFFFFF"></path>
                </g>
            </g>
        </g>
    </g>
</svg>