<?xml version="1.0" encoding="UTF-8"?>
<svg width="138px" height="87px" viewBox="0 0 138 87" version="1.1" xmlns="http://www.w3.org/2000/svg" xmlns:xlink="http://www.w3.org/1999/xlink">
    <!-- Generator: Sketch 45 (43475) - http://www.bohemiancoding.com/sketch -->
    <title>clapper-logo-vertical</title>
    <desc>Created with Sketch.</desc>
    <defs>
        <path d="M16.6971232,75.0333333 C16.5635462,74.7333333 16.3297865,74.6333333 16.0626325,74.7666667 C14.8270454,75.4666667 13.6248526,75.7 12.1889,75.7 C9.35038901,75.7 7.07958025,73.1333333 7.07958025,70 C7.07958025,66.8666667 9.35038901,64.3 12.1889,64.3 C13.6248526,64.3 14.8270454,64.5333333 16.0626325,65.2333333 C16.3297865,65.3666667 16.5635462,65.2666667 16.6971232,64.9666667 L18.8009608,60.5333333 C18.9011435,60.3 18.7675665,60.1333333 18.5004125,59.9333333 C16.930883,58.7666667 14.1257663,58 11.4876208,58 C5.14271396,58 0,63.3666667 0,70 C0,76.6333333 5.14271396,82 11.4876208,82 C14.1257663,82 16.930883,81.2333333 18.5004125,80.0666667 C18.7675665,79.8666667 18.9011435,79.7 18.8009608,79.4666667 L16.6971232,75.0333333 Z M27.6170418,75.5 L33.8283717,75.5 C34.0621314,75.5 34.2624969,75.7 34.2624969,75.9666667 L33.7949774,81.0333333 C33.7615832,81.2666667 33.5278234,81.5 33.2606695,81.5 L21.2053465,81.5 C20.9381925,81.5 20.7044328,81.2666667 20.7044328,81.0333333 L20.7044328,59 C20.7044328,58.7333333 20.9381925,58.5 21.2053465,58.5 L27.1161281,58.5 C27.3832821,58.5 27.6170418,58.7333333 27.6170418,59 L27.6170418,75.5 Z M50.1247639,58.9333333 L57.6718636,81.0666667 C57.7720464,81.2666667 57.6384694,81.5 57.3713154,81.5 L50.7592546,81.5 C50.4587064,81.5 50.1915524,81.3333333 50.0579754,81.0666667 L49.0561481,77.5666667 L42.7780297,77.5666667 L41.7762023,81.0666667 C41.6426253,81.3333333 41.3754714,81.5 41.0749232,81.5 L34.4628624,81.5 C34.1957084,81.5 34.0621314,81.2666667 34.1623141,81.0666667 L41.7094138,58.9333333 C41.8095966,58.7333333 42.1769333,58.5 42.5108757,58.5 L49.323302,58.5 C49.6572445,58.5 50.0245812,58.7333333 50.1247639,58.9333333 Z M47.7203782,72.8 L45.9170889,66.4666667 L44.1137996,72.8 L47.7203782,72.8 Z M59.0410277,58.5 L66.9220699,58.5 C72.766063,58.5 76.2724589,61.6666667 76.2724589,66.4333333 C76.2724589,71.2 72.766063,74.3666667 66.9220699,74.3666667 L65.5529058,74.3666667 L65.5529058,81.0333333 C65.5529058,81.2666667 65.3191461,81.5 65.0185979,81.5 L59.0410277,81.5 C58.807268,81.5 58.5735083,81.2666667 58.5735083,81.0333333 L58.5735083,59 C58.5735083,58.7333333 58.807268,58.5 59.0410277,58.5 Z M65.4861173,68.4 L67.2226181,68.4 C68.3914168,68.4 69.1928787,67.6 69.1928787,66.4333333 C69.1928787,65.2666667 68.3914168,64.4666667 67.2226181,64.4666667 L65.4861173,64.4666667 L65.4861173,68.4 Z M78.1425367,58.5 L86.0235789,58.5 C91.867572,58.5 95.3739679,61.6666667 95.3739679,66.4333333 C95.3739679,71.2 91.867572,74.3666667 86.0235789,74.3666667 L84.6544148,74.3666667 L84.6544148,81.0333333 C84.6544148,81.2666667 84.4206551,81.5 84.1201068,81.5 L78.1425367,81.5 C77.908777,81.5 77.6750173,81.2666667 77.6750173,81.0333333 L77.6750173,59 C77.6750173,58.7333333 77.908777,58.5 78.1425367,58.5 Z M84.5876263,68.4 L86.3241271,68.4 C87.4929257,68.4 88.2943876,67.6 88.2943876,66.4333333 C88.2943876,65.2666667 87.4929257,64.4666667 86.3241271,64.4666667 L84.5876263,64.4666667 L84.5876263,68.4 Z M103.72253,75.5 L103.72253,72.6666667 L110.735321,72.6666667 C111.035869,72.6666667 111.269629,72.4333333 111.303023,72.2333333 L111.770543,67.5666667 C111.803937,67.3666667 111.636966,67.1333333 111.336418,67.1333333 L103.72253,67.1333333 L103.72253,64.5 L111.937514,64.5 C112.238062,64.5 112.471822,64.3 112.471822,64 L112.471822,58.9666667 C112.471822,58.7333333 112.238062,58.5 111.937514,58.5 L97.2440457,58.5 C96.9434975,58.5 96.7765263,58.6666667 96.7765263,58.9666667 L96.7765263,81 C96.8433147,81.2333333 97.0770745,81.5 97.3108342,81.5 L112.171274,81.5 C112.438428,81.5 112.672188,81.2666667 112.672188,81.0333333 L112.672188,75.9333333 C112.672188,75.7 112.438428,75.5 112.171274,75.5 L103.72253,75.5 Z M129.001974,72.2333333 L133.944323,80.9666667 C134.111294,81.2666667 133.877534,81.5 133.576986,81.5 L126.797954,81.5 C126.464011,81.5 126.163463,81.2666667 126.029886,80.9666667 L123.091192,74.1666667 C122.790644,73.4333333 122.289731,73.0666667 121.788817,73.1333333 L121.788817,81.0333333 C121.788817,81.2666667 121.555057,81.5 121.254509,81.5 L115.377122,81.5 C115.109968,81.5 114.876208,81.2666667 114.876208,81.0333333 L114.876208,59 C114.876208,58.7333333 115.109968,58.5 115.377122,58.5 L124.193203,58.5 C129.335917,58.5 132.74213,61.5 132.74213,66.0333333 C132.74213,68.7 131.306177,71.0666667 129.001974,72.2333333 Z M121.788817,68.0333333 L123.759077,68.0333333 C124.894482,68.0333333 125.662549,67.3333333 125.662549,66.2666667 C125.662549,65.2 124.894482,64.5 123.759077,64.5 L121.788817,64.5 L121.788817,68.0333333 Z" id="path-1"></path>
        <filter x="-2.6%" y="-10.4%" width="105.2%" height="133.3%" filterUnits="objectBoundingBox" id="filter-2">
            <feOffset dx="0" dy="1" in="SourceAlpha" result="shadowOffsetOuter1"></feOffset>
            <feGaussianBlur stdDeviation="1" in="shadowOffsetOuter1" result="shadowBlurOuter1"></feGaussianBlur>
            <feColorMatrix values="0 0 0 0 0   0 0 0 0 0   0 0 0 0 0  0 0 0 0.24 0" type="matrix" in="shadowBlurOuter1" result="shadowMatrixOuter1"></feColorMatrix>
            <feOffset dx="0" dy="1" in="SourceAlpha" result="shadowOffsetOuter2"></feOffset>
            <feColorMatrix values="0 0 0 0 0   0 0 0 0 0   0 0 0 0 0  0 0 0 0.24 0" type="matrix" in="shadowOffsetOuter2" result="shadowMatrixOuter2"></feColorMatrix>
            <feMerge>
                <feMergeNode in="shadowMatrixOuter1"></feMergeNode>
                <feMergeNode in="shadowMatrixOuter2"></feMergeNode>
            </feMerge>
        </filter>
        <linearGradient x1="50%" y1="0%" x2="50%" y2="100%" id="linearGradient-3">
            <stop stop-color="#FFBB00" offset="0%"></stop>
            <stop stop-color="#FFA200" offset="100%"></stop>
        </linearGradient>
        <circle id="path-4" cx="24" cy="24" r="24"></circle>
        <filter x="-18.8%" y="-12.5%" width="137.5%" height="137.5%" filterUnits="objectBoundingBox" id="filter-5">
            <feOffset dx="0" dy="2" in="SourceAlpha" result="shadowOffsetOuter1"></feOffset>
            <feGaussianBlur stdDeviation="2" in="shadowOffsetOuter1" result="shadowBlurOuter1"></feGaussianBlur>
            <feColorMatrix values="0 0 0 0 0   0 0 0 0 0   0 0 0 0 0  0 0 0 0.25 0" type="matrix" in="shadowBlurOuter1" result="shadowMatrixOuter1"></feColorMatrix>
            <feOffset dx="0" dy="1" in="SourceAlpha" result="shadowOffsetOuter2"></feOffset>
            <feGaussianBlur stdDeviation="1" in="shadowOffsetOuter2" result="shadowBlurOuter2"></feGaussianBlur>
            <feColorMatrix values="0 0 0 0 0   0 0 0 0 0   0 0 0 0 0  0 0 0 0.12 0" type="matrix" in="shadowBlurOuter2" result="shadowMatrixOuter2"></feColorMatrix>
            <feMerge>
                <feMergeNode in="shadowMatrixOuter1"></feMergeNode>
                <feMergeNode in="shadowMatrixOuter2"></feMergeNode>
            </feMerge>
        </filter>
    </defs>
    <g id="Symbols" stroke="none" stroke-width="1" fill="none" fill-rule="evenodd">
        <g id="logos/clapper-logo-vertical" transform="translate(3.000000, 2.000000)">
            <g id="clapper-logo-vertical" transform="translate(-1.000000, 0.000000)">
                <g id="CLAPPER">
                    <use fill="black" fill-opacity="1" filter="url(#filter-2)" xlink:href="#path-1"></use>
                    <use fill="#FFFFFF" fill-rule="evenodd" xlink:href="#path-1"></use>
                </g>
                <g id="clapper-icon" transform="translate(43.000000, 0.000000)">
                    <g id="Oval-3">
                        <use fill="black" fill-opacity="1" filter="url(#filter-5)" xlink:href="#path-4"></use>
                        <use fill="url(#linearGradient-3)" fill-rule="evenodd" xlink:href="#path-4"></use>
                    </g>
                    <path d="M32.6938839,12.0456042 L13.3773826,15.2896712 C11.8010377,15.5762364 10.7646667,17.0106013 11.046061,18.5584476 L11.2187895,19.7426009 L11.2187895,33.1506508 C11.2187895,34.7131411 12.4933332,36 14.055784,36 L33.6190235,36 C35.1814743,36 36.456018,34.7131411 36.456018,33.1506508 L36.456018,19.3108586 L16.2884262,19.3108586 L36.1229946,15.9434423 C36.1229946,15.9434423 35.9779359,14.5590486 35.9626208,14.4139109 C35.672819,12.8135671 34.2416908,11.7641705 32.6938839,12.0456042 Z M32.8295879,12.8226851 C32.909913,12.8080806 32.984712,12.8398948 33.0639318,12.8350398 L35.2472343,15.1416521 C35.2534314,15.203978 35.253234,15.2296347 35.2595495,15.2896712 L32.9652524,15.684389 L30.5845911,13.2050482 L32.8295879,12.8226851 Z M28.2162844,13.599766 L30.5229361,16.0914615 L28.1546295,16.4984944 L25.8109926,14.0068385 L28.2162844,13.599766 Z M23.4057009,14.4015562 L25.7616529,16.9055274 L23.3193367,17.3249545 L20.9880545,14.8086287 L23.4057009,14.4015562 Z M18.5333836,15.2279769 L20.95103,17.7319875 L18.5087137,18.1390205 L16.1773921,15.6226946 L18.5333836,15.2279769 Z M13.7474305,16.6588288 C14.2536955,16.6588288 14.6725306,17.0653486 14.67257,17.5716531 C14.67257,18.0779182 14.2536955,18.4843985 13.7474305,18.4843985 C13.2411655,18.4843985 12.8346456,18.0779182 12.8346456,17.5716531 C12.8346456,17.0653486 13.2411655,16.6588288 13.7474305,16.6588288 Z M13.7967702,20.1002942 L16.2390865,20.1002942 L14.055784,23.3813857 L12.008225,23.3813857 L12.008225,22.7893091 L13.7967702,20.1002942 Z M18.6937179,20.1002942 L21.1360737,20.1002942 L18.9527712,23.3813857 L16.4981398,23.3813857 L18.6937179,20.1002942 Z M23.5783505,20.1002942 L26.0207062,20.1002942 L23.8374037,23.3813857 L21.3950875,23.3813857 L23.5783505,20.1002942 Z M28.462983,20.1002942 L30.9053387,20.1002942 L28.7220363,23.3813857 L26.27972,23.3813857 L28.462983,20.1002942 Z M33.3599702,20.1002942 L35.6665825,20.1002942 L35.6665825,20.2976531 L33.6190235,23.3813857 L31.1643525,23.3813857 L33.3599702,20.1002942 Z" id="Shape" fill="#FFFFFF"></path>
                </g>
            </g>
        </g>
    </g>
</svg>