<?xml version="1.0" encoding="UTF-8"?>
<svg width="56px" height="56px" viewBox="0 0 56 56" version="1.1" xmlns="http://www.w3.org/2000/svg" xmlns:xlink="http://www.w3.org/1999/xlink">
    <!-- Generator: Sketch 45 (43475) - http://www.bohemiancoding.com/sketch -->
    <title>clapper-icon</title>
    <desc>Created with Sketch.</desc>
    <defs>
        <linearGradient x1="50%" y1="0%" x2="50%" y2="100%" id="linearGradient-1">
            <stop stop-color="#FFAA00" offset="0%"></stop>
            <stop stop-color="#FF8000" offset="100%"></stop>
        </linearGradient>
        <circle id="path-2" cx="24" cy="24" r="24"></circle>
        <filter x="-18.8%" y="-12.5%" width="137.5%" height="137.5%" filterUnits="objectBoundingBox" id="filter-3">
            <feOffset dx="0" dy="2" in="SourceAlpha" result="shadowOffsetOuter1"></feOffset>
            <feGaussianBlur stdDeviation="2" in="shadowOffsetOuter1" result="shadowBlurOuter1"></feGaussianBlur>
            <feColorMatrix values="0 0 0 0 0   0 0 0 0 0   0 0 0 0 0  0 0 0 0.25 0" type="matrix" in="shadowBlurOuter1" result="shadowMatrixOuter1"></feColorMatrix>
            <feOffset dx="0" dy="1" in="SourceAlpha" result="shadowOffsetOuter2"></feOffset>
            <feGaussianBlur stdDeviation="1" in="shadowOffsetOuter2" result="shadowBlurOuter2"></feGaussianBlur>
            <feColorMatrix values="0 0 0 0 0   0 0 0 0 0   0 0 0 0 0  0 0 0 0.12 0" type="matrix" in="shadowBlurOuter2" result="shadowMatrixOuter2"></feColorMatrix>
            <feMerge>
                <feMergeNode in="shadowMatrixOuter1"></feMergeNode>
                <feMergeNode in="shadowMatrixOuter2"></feMergeNode>
            </feMerge>
        </filter>
    </defs>
    <g id="Clapper" stroke="none" stroke-width="1" fill="none" fill-rule="evenodd">
        <g id="Index" transform="translate(-26.000000, -14.000000)">
            <g id="clapper-logo" transform="translate(30.000000, 16.000000)">
                <g id="clapper-icon">
                    <g id="Oval-3">
                        <use fill="black" fill-opacity="1" filter="url(#filter-3)" xlink:href="#path-2"></use>
                        <use fill="url(#linearGradient-1)" fill-rule="evenodd" xlink:href="#path-2"></use>
                    </g>
                    <path d="M32.6938839,12.0456042 L13.3773826,15.2896712 C11.8010377,15.5762364 10.7646667,17.0106013 11.046061,18.5584476 L11.2187895,19.7426009 L11.2187895,33.1506508 C11.2187895,34.7131411 12.4933332,36 14.055784,36 L33.6190235,36 C35.1814743,36 36.456018,34.7131411 36.456018,33.1506508 L36.456018,19.3108586 L16.2884262,19.3108586 L36.1229946,15.9434423 C36.1229946,15.9434423 35.9779359,14.5590486 35.9626208,14.4139109 C35.672819,12.8135671 34.2416908,11.7641705 32.6938839,12.0456042 Z M32.8295879,12.8226851 C32.909913,12.8080806 32.984712,12.8398948 33.0639318,12.8350398 L35.2472343,15.1416521 C35.2534314,15.203978 35.253234,15.2296347 35.2595495,15.2896712 L32.9652524,15.684389 L30.5845911,13.2050482 L32.8295879,12.8226851 Z M28.2162844,13.599766 L30.5229361,16.0914615 L28.1546295,16.4984944 L25.8109926,14.0068385 L28.2162844,13.599766 Z M23.4057009,14.4015562 L25.7616529,16.9055274 L23.3193367,17.3249545 L20.9880545,14.8086287 L23.4057009,14.4015562 Z M18.5333836,15.2279769 L20.95103,17.7319875 L18.5087137,18.1390205 L16.1773921,15.6226946 L18.5333836,15.2279769 Z M13.7474305,16.6588288 C14.2536955,16.6588288 14.6725306,17.0653486 14.67257,17.5716531 C14.67257,18.0779182 14.2536955,18.4843985 13.7474305,18.4843985 C13.2411655,18.4843985 12.8346456,18.0779182 12.8346456,17.5716531 C12.8346456,17.0653486 13.2411655,16.6588288 13.7474305,16.6588288 Z M13.7967702,20.1002942 L16.2390865,20.1002942 L14.055784,23.3813857 L12.008225,23.3813857 L12.008225,22.7893091 L13.7967702,20.1002942 Z M18.6937179,20.1002942 L21.1360737,20.1002942 L18.9527712,23.3813857 L16.4981398,23.3813857 L18.6937179,20.1002942 Z M23.5783505,20.1002942 L26.0207062,20.1002942 L23.8374037,23.3813857 L21.3950875,23.3813857 L23.5783505,20.1002942 Z M28.462983,20.1002942 L30.9053387,20.1002942 L28.7220363,23.3813857 L26.27972,23.3813857 L28.462983,20.1002942 Z M33.3599702,20.1002942 L35.6665825,20.1002942 L35.6665825,20.2976531 L33.6190235,23.3813857 L31.1643525,23.3813857 L33.3599702,20.1002942 Z" id="Shape" fill="#FFFFFF"></path>
                </g>
            </g>
        </g>
    </g>
</svg>